
        <svg xmlns="http://www.w3.org/2000/svg" width="800" height="400">
            <polyline points="47.09048099562732,30.909090909090935 53.01042717793475,107.27272727272731 88.39556004036328,129.09090909090912 97.81365623948874,150.90909090909093 116.64984863773967,194.54545454545456 178.54019508913558,227.27272727272728 181.90380087453752,281.8181818181818 207.0635721493441,336.3636363636364 217.28893373696604,380.0 253.61587621930713,281.8181818181818 258.594012781702,270.90909090909093 281.4665321224353,260.0 286.44466868483016,227.27272727272728 297.4772956609486,205.45454545454547 303.5317860746721,183.63636363636365 326.40430541540536,140.00000000000003 346.585940127817,129.09090909090912 349.27682475613864,129.09090909090912 369.4584594685503,118.18181818181819 389.640094180962,107.27272727272731 409.82172889337374,107.27272727272731 430.00336360578547,118.18181818181819 450.18499831819713,107.27272727272731 470.36663303060885,107.27272727272731 490.5482677430206,107.27272727272731 510.7299024554323,96.36363636363637 530.911537167844,74.54545454545456 551.0931718802557,41.81818181818187 571.2748065926673,74.54545454545456 591.4564413050791,52.72727272727275 611.6380760174908,41.81818181818187 631.8197107299025,63.63636363636368 652.0013454423142,74.54545454545456 672.1829801547259,74.54545454545456 692.3646148671377,96.36363636363637 712.5462495795493,74.54545454545456 732.727884291961,52.72727272727275 752.9095190043728,20.0 800.0000000000001,20.0" 
                      fill="none" stroke="blue" stroke-width="2" />
            <text x="47.09048099562732" y="25.909090909090935" font-size="10" text-anchor="middle" fill="black">236</text><text x="53.01042717793475" y="102.27272727272731" font-size="10" text-anchor="middle" fill="black">229</text><text x="88.39556004036328" y="124.09090909090912" font-size="10" text-anchor="middle" fill="black">227</text><text x="97.81365623948874" y="145.90909090909093" font-size="10" text-anchor="middle" fill="black">225</text><text x="116.64984863773967" y="189.54545454545456" font-size="10" text-anchor="middle" fill="black">221</text><text x="178.54019508913558" y="222.27272727272728" font-size="10" text-anchor="middle" fill="black">218</text><text x="181.90380087453752" y="276.8181818181818" font-size="10" text-anchor="middle" fill="black">213</text><text x="207.0635721493441" y="331.3636363636364" font-size="10" text-anchor="middle" fill="black">208</text><text x="217.28893373696604" y="375.0" font-size="10" text-anchor="middle" fill="black">204</text><text x="253.61587621930713" y="276.8181818181818" font-size="10" text-anchor="middle" fill="black">213</text><text x="258.594012781702" y="265.90909090909093" font-size="10" text-anchor="middle" fill="black">214</text><text x="281.4665321224353" y="255.0" font-size="10" text-anchor="middle" fill="black">215</text><text x="286.44466868483016" y="222.27272727272728" font-size="10" text-anchor="middle" fill="black">218</text><text x="297.4772956609486" y="200.45454545454547" font-size="10" text-anchor="middle" fill="black">220</text><text x="303.5317860746721" y="178.63636363636365" font-size="10" text-anchor="middle" fill="black">222</text><text x="326.40430541540536" y="135.00000000000003" font-size="10" text-anchor="middle" fill="black">226</text><text x="346.585940127817" y="124.09090909090912" font-size="10" text-anchor="middle" fill="black">227</text><text x="349.27682475613864" y="124.09090909090912" font-size="10" text-anchor="middle" fill="black">227</text><text x="369.4584594685503" y="113.18181818181819" font-size="10" text-anchor="middle" fill="black">228</text><text x="389.640094180962" y="102.27272727272731" font-size="10" text-anchor="middle" fill="black">229</text><text x="409.82172889337374" y="102.27272727272731" font-size="10" text-anchor="middle" fill="black">229</text><text x="430.00336360578547" y="113.18181818181819" font-size="10" text-anchor="middle" fill="black">228</text><text x="450.18499831819713" y="102.27272727272731" font-size="10" text-anchor="middle" fill="black">229</text><text x="470.36663303060885" y="102.27272727272731" font-size="10" text-anchor="middle" fill="black">229</text><text x="490.5482677430206" y="102.27272727272731" font-size="10" text-anchor="middle" fill="black">229</text><text x="510.7299024554323" y="91.36363636363637" font-size="10" text-anchor="middle" fill="black">230</text><text x="530.911537167844" y="69.54545454545456" font-size="10" text-anchor="middle" fill="black">232</text><text x="551.0931718802557" y="36.81818181818187" font-size="10" text-anchor="middle" fill="black">235</text><text x="571.2748065926673" y="69.54545454545456" font-size="10" text-anchor="middle" fill="black">232</text><text x="591.4564413050791" y="47.72727272727275" font-size="10" text-anchor="middle" fill="black">234</text><text x="611.6380760174908" y="36.81818181818187" font-size="10" text-anchor="middle" fill="black">235</text><text x="631.8197107299025" y="58.63636363636368" font-size="10" text-anchor="middle" fill="black">233</text><text x="652.0013454423142" y="69.54545454545456" font-size="10" text-anchor="middle" fill="black">232</text><text x="672.1829801547259" y="69.54545454545456" font-size="10" text-anchor="middle" fill="black">232</text><text x="692.3646148671377" y="91.36363636363637" font-size="10" text-anchor="middle" fill="black">230</text><text x="712.5462495795493" y="69.54545454545456" font-size="10" text-anchor="middle" fill="black">232</text><text x="732.727884291961" y="47.72727272727275" font-size="10" text-anchor="middle" fill="black">234</text><text x="752.9095190043728" y="15.0" font-size="10" text-anchor="middle" fill="black">237</text><text x="800.0000000000001" y="15.0" font-size="10" text-anchor="middle" fill="black">237</text>
            <rect width="800" height="400" fill="none" stroke="black" />
        </svg>
        